<svg viewBox="0 0 24 24" xmlns="http://www.w3.org/2000/svg"><g transform="matrix(-2.78277e-16,-0.982349,0.949939,-2.69096e-16,1.03567,15.5102)"><rect x="2.046" y="1.015" width="3.054" height="21.054" fill="#6CF"/></g><g transform="matrix(6.12323e-17,-1,1,6.12323e-17,-1.24345e-14,24)"><path d="M8.5,13L5,13L5,19L8.5,19L8.5,13ZM15.5,13L15.5,19L19,19L19,13L15.5,13Z" fill="#999"/></g><g transform="matrix(6.12323e-17,-1,1,6.12323e-17,-1.24345e-14,24)"><path d="M8.5,5L2,5L2,11L8.5,11L8.5,5ZM15.5,5L15.5,11L22,11L22,5L15.5,5Z" fill="#999"/></g></svg>
