<svg viewBox="0 0 24 24" xmlns="http://www.w3.org/2000/svg"><g transform="matrix(1.03226,0,0,1.03226,-0.645161,-0.645161)" style="fill:#6CF"><rect x="4.5" y="4.5" width="15.5" height="15.5"/><path d="M20,4.5L4.5,4.5L4.5,20L20,20L20,4.5ZM19.031,5.469L19.031,19.031C19.031,19.031 5.469,19.031 5.469,19.031C5.469,19.031 5.469,5.469 5.469,5.469L19.031,5.469Z"/></g><path d="M21,14L21,21L14,21L14,22L22,22L22,14L21,14Z" style="fill:white"/><path d="M21,14L21,21L14,21L14,22L22,22L22,14L21,14Z" style="fill:#999"/><path d="M10,3L10,2L2,2L2,10L3,10L3,3L10,3Z" style="fill:white"/><path d="M10,3L10,2L2,2L2,10L3,10L3,3L10,3Z" style="fill:#999"/></svg>
