<svg width="100%" height="100%" viewBox="0 0 24 24" xmlns="http://www.w3.org/2000/svg"><g transform="matrix(0.98062,0,0,0.788162,11.2868,9.83801)" style="fill:#999"><rect x="2.767" y="5.281" width="8.158" height="10.15"/><path d="M10.925,5.281L2.767,5.281L2.767,15.431L10.925,15.431L10.925,5.281ZM8.885,7.818L8.885,12.893C8.885,12.893 4.806,12.893 4.806,12.893C4.806,12.893 4.806,7.818 4.806,7.818L8.885,7.818Z"/></g><g transform="matrix(0.98062,0,0,0.788162,-0.713178,-2.16199)" style="fill:#999"><rect x="2.767" y="5.281" width="8.158" height="10.15"/><path d="M10.925,5.281L2.767,5.281L2.767,15.431L10.925,15.431L10.925,5.281ZM8.885,7.818L8.885,12.893C8.885,12.893 4.806,12.893 4.806,12.893C4.806,12.893 4.806,7.818 4.806,7.818L8.885,7.818Z"/></g><g transform="matrix(1.14286,0,0,1.14286,-1.71429,-1.71429)" style="fill:#6CF"><path d="M11,5L11,11L5,11L5,19L13,19L13,13L19,13L19,5L11,5Z"/><path d="M11,5L11,11L5,11L5,19L13,19L13,13L19,13L19,5L11,5ZM11.25,12.75L11.25,17.25C11.25,17.25 6.75,17.25 6.75,17.25C6.75,17.25 6.75,12.75 6.75,12.75L11.25,12.75ZM12.75,11.25L12.75,6.75L17.25,6.75C17.25,6.75 17.25,11.25 17.25,11.25L12.75,11.25Z"/></g></svg>
