<svg viewBox="0 0 24 24" xmlns="http://www.w3.org/2000/svg"><g transform="matrix(.738462 0 0 .813559 6.49231 -1.25424)"><path d="M21,18.75C21,10.604 13.725,4 4.75,4L4.75,6.95C11.93,6.95 17.75,12.233 17.75,18.75L21,18.75Z" fill="#999"/><path d="M21,18.75C21,10.604 13.725,4 4.75,4L4.75,6.95C11.93,6.95 17.75,12.233 17.75,18.75L21,18.75Z" fill="#c63"/></g><g transform="matrix(0 1.33333 -.64516129 0 23.290335 11.333331)"><rect x="2" y="2" width="6" height="15.5" fill="#999"/></g><g transform="matrix(1.33333 0 0 1.29032 -.666667 -.580645)"><rect x="2" y="2" width="6" height="15.5" fill="#6cf"/></g></svg>
