<svg viewBox="0 0 24 24" xmlns="http://www.w3.org/2000/svg"><g transform="matrix(4.52177e-17,0.738462,-0.813559,4.98161e-17,25.2542,6.49231)"><path d="M21,18.75C21,10.604 13.725,4 4.75,4L4.75,6.95C11.93,6.95 17.75,12.233 17.75,18.75L21,18.75Z" fill="#999"/><path d="M21,18.75C21,10.604 13.725,4 4.75,4L4.75,6.95C11.93,6.95 17.75,12.233 17.75,18.75L21,18.75Z" fill="#c63"/></g><g transform="matrix(0,1.33333,-0.64516129,0,23.290287,-0.66666)"><rect x="2" y="2" width="6" height="15.5" fill="#999"/></g><g transform="matrix(-1.33333,1.63286e-16,-1.58019e-16,-1.29032,12.6667,24.5806)"><rect x="2" y="2" width="6" height="15.5" fill="#6cf"/></g></svg>
