<svg viewBox="0 0 24 24" xmlns="http://www.w3.org/2000/svg"><g transform="matrix(1,0,0,1,-3,0)"><rect x="11" y="2" width="2" height="20" fill="#6cf"/></g><g transform="matrix(1,0,0,1,3,0)"><rect x="11" y="2" width="2" height="20" fill="#6cf"/></g><g transform="matrix(1,0,0,1,-9,0)"><rect x="11" y="2" width="2" height="20" fill="#6cf"/></g><g transform="matrix(1,0,0,1,9,0)"><rect x="11" y="2" width="2" height="20" fill="#6cf"/></g><g transform="matrix(6.12323e-17,1,-1,6.12323e-17,24,3)"><rect x="11" y="2" width="2" height="20" fill="#6cf"/></g><g transform="matrix(6.12323e-17,1,-1,6.12323e-17,24,9)"><rect x="11" y="2" width="2" height="20" fill="#6cf"/></g><g transform="matrix(6.12323e-17,1,-1,6.12323e-17,24,-9)"><rect x="11" y="2" width="2" height="20" fill="#6cf"/></g><g transform="matrix(6.12323e-17,1,-1,6.12323e-17,24,-3)"><rect x="11" y="2" width="2" height="20" fill="#6cf"/></g></svg>
