<svg viewBox="0 0 24 24" xmlns="http://www.w3.org/2000/svg"><g transform="matrix(0.707107,0.707107,-0.707107,0.707107,12.8839,-4.08668)"><g transform="matrix(1.25,0,0,1.25,-3,-3)"><path d="M8.4,17.6L8.4,8.998C8.4,8.309 8.674,7.648 9.161,7.161C9.648,6.674 10.309,6.4 10.998,6.4L11,6.4C11.69,6.4 12.351,6.674 12.838,7.162C13.326,7.649 13.6,8.31 13.6,9C13.6,12.309 13.6,17.6 13.6,17.6L16,17.6L16,8.998C16,6.238 13.762,4 11.002,4L11,4C9.674,4 8.402,4.527 7.464,5.464C6.527,6.402 6,7.674 6,9C6,12.879 6,17.6 6,17.6L8.4,17.6Z" fill="#6CF"/></g><g transform="matrix(2,0,0,1.5,-8.5,-8)"><rect x="6.5" y="18" width="1.5" height="2" fill="#C63"/></g><g transform="matrix(2,0,0,1.5,1,-8)"><rect x="6.5" y="18" width="1.5" height="2" fill="#C63"/></g></g></svg>
