<svg width="100%" height="100%" viewBox="0 0 1080 1080" version="1.1" xmlns="http://www.w3.org/2000/svg" xmlns:xlink="http://www.w3.org/1999/xlink" xml:space="preserve" xmlns:serif="http://www.serif.com/" style="fill-rule:evenodd;clip-rule:evenodd;stroke-linejoin:round;stroke-miterlimit:2;">
    <g transform="matrix(29.7069,0,0,29.7069,-104.678,-410.62)">
        <g transform="matrix(0.0358622,0,0,0.0358874,1.1477,11.4192)">
            <path d="M1080,218.921C1080,135.055 1011.86,66.966 927.938,66.966L218.315,66.966C134.39,66.966 66.253,135.055 66.253,218.921L66.253,928.045C66.253,1011.91 134.39,1080 218.315,1080L927.938,1080C1011.86,1080 1080,1011.91 1080,928.045L1080,218.921Z" style="fill:rgb(37,37,37);"/>
        </g>
        <g transform="matrix(0.916636,0,0,0.916636,1.80891,2.66762)">
            <path d="M16.234,42.097C16.182,42.098 16.13,42.099 16.078,42.099C14.568,42.099 13.228,41.831 12.056,41.294C10.904,40.758 10.001,39.914 9.345,38.762C8.71,37.591 8.392,36.051 8.392,34.145L8.392,23.867C8.392,23.113 8.005,22.616 7.23,22.378L6.575,22.199L6.575,21.901L14.827,21.901L14.827,22.199L13.963,22.438C13.228,22.616 12.86,23.113 12.86,23.927L12.86,34.919C12.86,36.766 13.248,38.137 14.022,39.03C14.455,39.518 14.992,39.87 15.636,40.085C16.144,40.256 16.718,40.341 17.359,40.341C17.948,40.341 18.49,40.27 18.982,40.127C19.751,39.905 20.401,39.51 20.933,38.941C21.827,38.008 22.274,36.687 22.274,34.979L22.274,25.435L21.84,24.095C21.698,23.668 21.566,23.343 21.444,23.12C21.322,22.896 21.119,22.714 20.834,22.572L20.164,22.206L20.164,21.901L27.811,21.901L27.811,22.206L26.866,22.572C26.46,22.714 26.226,22.927 26.166,23.211C26.125,23.475 26.176,23.821 26.318,24.247L30.187,37.194L33.842,24.491C33.985,24.003 34.035,23.577 33.995,23.211C33.954,22.846 33.7,22.582 33.233,22.419L32.593,22.206L32.593,21.901L36.828,21.901L36.828,22.206L36.036,22.511C35.63,22.653 35.345,22.876 35.183,23.181C35.02,23.485 34.878,23.861 34.756,24.308L29.699,42.099L27.597,42.099L23.028,27.781L22.989,27.9L22.989,34.919C22.989,36.369 22.701,37.64 22.125,38.732C21.549,39.805 20.745,40.639 19.712,41.235C19.316,41.456 18.893,41.634 18.444,41.771C17.767,41.976 17.03,42.085 16.234,42.097Z" style="fill:rgb(254,254,254);"/>
        </g>
    </g>
</svg>
